<?xml version="1.0" standalone="no"?>
<!DOCTYPE svg PUBLIC "-//W3C//DTD SVG 1.1//EN"
  "http://www.w3.org/Graphics/SVG/1.1/DTD/svg11.dtd">
<svg width="78mm" height="57.999999999999986mm" viewBox="-35 -33.99999999999999 78 57.999999999999986" xmlns="http://www.w3.org/2000/svg" version="1.1">
	<title>svgOutput</title>
	<desc>made with tinkercad</desc>
<path d="M 41.94900131225586 16.216999053955075 L 41.959877014160156 16.38400077819824 L 42 16.999999999999996 L 41.94900131225586 17.78300094604492 L 41.79600143432617 18.552999496459957 L 41.542999267578125 19.295999526977536 L 41.19599914550781 19.999999999999996 L 40.959999084472656 20.353458404541012 L 40.7599983215332 20.652999877929684 L 40.24300003051758 21.243000030517575 L 39.65299987792969 21.760000228881832 L 39 22.19599914550781 L 38.29600143432617 22.54299926757812 L 37.553001403808594 22.795999526977536 L 36.78300094604492 22.948999404907223 L 36 22.999999999999996 L 35.47366714477539 22.999999999999996 L 35.04610061645508 22.999999999999996 L 34.631168365478516 22.999999999999996 L 34.20415496826172 22.999999999999996 L 32.768001556396484 22.999999999999996 L 32.282691955566406 22.999999999999996 L 31.71825408935547 22.999999999999996 L 31.08762550354004 22.999999999999996 L 30.390804290771484 22.999999999999996 L 30 22.999999999999996 L 29.99799919128418 22.999999999999996 L 25.24799919128418 22.999999999999996 L -32.75199890136719 22.999999999999996 L -34 22.999999999999996 L -34 -32.99999999999999 L -32.75199890136719 -32.99999999999999 L -29.74799919128418 -32.99999999999999 L 25.24799919128418 -32.99999999999999 L 28.253000259399414 -32.99999999999999 L 29.99799919128418 -32.99999999999999 L 30 -32.99999999999999 L 30 -1.0030000209808345 L 30 1.1102230246251565e-16 L 30 1.8043950796127315 L 30 2.2977085113525386 L 30 2.7560772895812984 L 30 3.2001605033874503 L 30 3.6214368343353263 L 30 4.041579246520995 L 30 4.463921546936034 L 30 4.969294071197509 L 29.99799919128418 4.999999999999999 L 30 5.030705928802489 L 30.048999786376953 5.782999992370605 L 30.20199966430664 6.553999900817869 L 30.45400047302246 7.296999931335447 L 30.802000045776367 8.001000404357908 L 31.238000869750977 8.654000282287596 L 31.756000518798828 9.244000434875487 L 32.34600067138672 9.762000083923338 L 32.768001556396484 10.043764114379881 L 32.999000549316406 10.197999954223631 L 33.702999114990234 10.545999526977537 L 34.44599914550781 10.798000335693358 L 35.21699905395508 10.951000213623045 L 35.95482635498047 10.999999999999998 L 35.977195739746094 11.00148582458496 L 36 11.003000259399412 L 36.022804260253906 11.00148582458496 L 36.046058654785156 11.003000259399412 L 36.78300094604492 11.050999641418455 L 37.553001403808594 11.20400047302246 L 38.29600143432617 11.456999778747557 L 39 11.80399990081787 L 39.04499816894531 11.834046363830565 L 39.65299987792969 12.23999977111816 L 40.24300003051758 12.756999969482418 L 40.7599983215332 13.347000122070309 L 40.959999084472656 13.64654159545898 L 41.19599914550781 13.999999999999996 L 41.542999267578125 14.704000473022457 L 41.79600143432617 15.446999549865719 L 41.94900131225586 16.216999053955075 M 33.143001556396484 16.181999206542965 L 33.10260009765625 16.38400077819824 L 33.066001892089844 16.5669994354248 L 33.040000915527344 16.95899963378906 L 33.066001892089844 17.350999832153317 L 33.143001556396484 17.736000061035153 L 33.26900100708008 18.10799980163574 L 33.44300079345703 18.459999084472653 L 33.6609992980957 18.7859992980957 L 33.91999816894531 19.08200073242187 L 34.21500015258789 19.34099960327148 L 34.54199981689453 19.559000015258786 L 34.816001892089844 19.694442749023434 L 34.89400100708008 19.73299980163574 L 35.26599884033203 19.858999252319332 L 35.6510009765625 19.93499946594238 L 36.042999267578125 19.96100044250488 L 36.435001373291016 19.93499946594238 L 36.81999969482422 19.858999252319332 L 36.86399841308594 19.84409713745117 L 37.19200134277344 19.73299980163574 L 37.54399871826172 19.559000015258786 L 37.87099838256836 19.34099960327148 L 38.16600036621094 19.08200073242187 L 38.42499923706055 18.7859992980957 L 38.643001556396484 18.459999084472653 L 38.81700134277344 18.10799980163574 L 38.94300079345703 17.736000061035153 L 39.02000045776367 17.350999832153317 L 39.04499816894531 16.95899963378906 L 39.02000045776367 16.5669994354248 L 38.9833984375 16.38400077819824 L 38.94300079345703 16.181999206542965 L 38.81700134277344 15.810000419616696 L 38.643001556396484 15.456999778747555 L 38.42499923706055 15.130999565124508 L 38.16600036621094 14.83600044250488 L 37.87099838256836 14.576999664306637 L 37.54399871826172 14.357999801635739 L 37.19200134277344 14.185000419616696 L 36.86399841308594 14.073021888732907 L 36.81999969482422 14.057999610900875 L 36.435001373291016 13.982000350952145 L 36.042999267578125 13.956000328063961 L 35.6510009765625 13.982000350952145 L 35.26599884033203 14.057999610900875 L 34.89400100708008 14.185000419616696 L 34.54199981689453 14.357999801635739 L 34.21500015258789 14.576999664306637 L 33.91999816894531 14.83600044250488 L 33.6609992980957 15.130999565124508 L 33.44300079345703 15.456999778747555 L 33.26900100708008 15.810000419616696 L 33.143001556396484 16.181999206542965 M 26.554000854492188 -28.26000022888183 L 26.75 -28.247999191284173 L 26.945999145507812 -28.26000022888183 L 27.138999938964844 -28.298999786376946 L 27.325000762939453 -28.361999511718743 L 27.500999450683594 -28.44899940490722 L 27.665000915527344 -28.558000564575188 L 27.793907165527344 -28.67200088500976 L 27.812000274658203 -28.68799972534179 L 27.941999435424805 -28.83499908447265 L 28.051000595092773 -28.9990005493164 L 28.13800048828125 -29.17499923706054 L 28.201000213623047 -29.36100006103515 L 28.239999771118164 -29.55400085449218 L 28.253000259399414 -29.749999999999993 L 28.239999771118164 -29.945999145507805 L 28.201000213623047 -30.138999938964837 L 28.13800048828125 -30.325000762939446 L 28.051000595092773 -30.500999450683587 L 27.941999435424805 -30.665000915527337 L 27.893360137939453 -30.719999313354485 L 27.812000274658203 -30.812000274658196 L 27.665000915527344 -30.941999435424798 L 27.500999450683594 -31.051000595092766 L 27.325000762939453 -31.138000488281243 L 27.138999938964844 -31.20100021362304 L 26.945999145507812 -31.239999771118157 L 26.75 -31.253000259399407 L 26.624000549316406 -31.244642257690423 L 26.554000854492188 -31.239999771118157 L 26.361000061035156 -31.20100021362304 L 26.174999237060547 -31.138000488281243 L 25.999000549316406 -31.051000595092766 L 25.834999084472656 -30.941999435424798 L 25.687999725341797 -30.812000274658196 L 25.606639862060547 -30.719999313354485 L 25.558000564575195 -30.665000915527337 L 25.448999404907227 -30.500999450683587 L 25.36199951171875 -30.325000762939446 L 25.298999786376953 -30.138999938964837 L 25.260000228881836 -29.945999145507805 L 25.24799919128418 -29.749999999999993 L 25.260000228881836 -29.55400085449218 L 25.298999786376953 -29.36100006103515 L 25.36199951171875 -29.17499923706054 L 25.448999404907227 -28.9990005493164 L 25.558000564575195 -28.83499908447265 L 25.687999725341797 -28.68799972534179 L 25.706092834472656 -28.67200088500976 L 25.834999084472656 -28.558000564575188 L 25.999000549316406 -28.44899940490722 L 26.174999237060547 -28.361999511718743 L 26.361000061035156 -28.298999786376946 L 26.554000854492188 -28.26000022888183 M 26.554000854492188 21.73999977111816 L 26.624000549316406 21.744642257690426 L 26.75 21.75300025939941 L 26.945999145507812 21.73999977111816 L 27.138999938964844 21.701000213623043 L 27.325000762939453 21.638000488281246 L 27.500999450683594 21.55100059509277 L 27.665000915527344 21.4419994354248 L 27.812000274658203 21.3120002746582 L 27.941999435424805 21.16500091552734 L 28.051000595092773 21.00099945068359 L 28.13800048828125 20.82500076293945 L 28.201000213623047 20.63899993896484 L 28.233129501342773 20.479999542236325 L 28.239999771118164 20.44599914550781 L 28.253000259399414 20.249999999999996 L 28.239999771118164 20.054000854492184 L 28.201000213623047 19.861000061035153 L 28.13800048828125 19.674999237060543 L 28.051000595092773 19.499000549316403 L 27.941999435424805 19.334999084472653 L 27.812000274658203 19.187999725341793 L 27.665000915527344 19.05800056457519 L 27.500999450683594 18.948999404907223 L 27.325000762939453 18.861999511718746 L 27.138999938964844 18.79899978637695 L 26.945999145507812 18.760000228881832 L 26.75 18.747999191284176 L 26.624000549316406 18.755714416503903 L 26.554000854492188 18.760000228881832 L 26.361000061035156 18.79899978637695 L 26.174999237060547 18.861999511718746 L 25.999000549316406 18.948999404907223 L 25.834999084472656 19.05800056457519 L 25.687999725341797 19.187999725341793 L 25.558000564575195 19.334999084472653 L 25.448999404907227 19.499000549316403 L 25.36199951171875 19.674999237060543 L 25.298999786376953 19.861000061035153 L 25.260000228881836 20.054000854492184 L 25.24799919128418 20.249999999999996 L 25.260000228881836 20.44599914550781 L 25.266870498657227 20.479999542236325 L 25.298999786376953 20.63899993896484 L 25.36199951171875 20.82500076293945 L 25.448999404907227 21.00099945068359 L 25.558000564575195 21.16500091552734 L 25.687999725341797 21.3120002746582 L 25.834999084472656 21.4419994354248 L 25.999000549316406 21.55100059509277 L 26.174999237060547 21.638000488281246 L 26.361000061035156 21.701000213623043 L 26.554000854492188 21.73999977111816 M -31.445999145507812 -28.26000022888183 L -31.25 -28.247999191284173 L -31.054000854492188 -28.26000022888183 L -30.861000061035156 -28.298999786376946 L -30.674999237060547 -28.361999511718743 L -30.499000549316406 -28.44899940490722 L -30.334999084472656 -28.558000564575188 L -30.206092834472656 -28.67200088500976 L -30.187999725341797 -28.68799972534179 L -30.058000564575195 -28.83499908447265 L -29.948999404907227 -28.9990005493164 L -29.86199951171875 -29.17499923706054 L -29.798999786376953 -29.36100006103515 L -29.760000228881836 -29.55400085449218 L -29.74799919128418 -29.749999999999993 L -29.760000228881836 -29.945999145507805 L -29.798999786376953 -30.138999938964837 L -29.86199951171875 -30.325000762939446 L -29.948999404907227 -30.500999450683587 L -30.058000564575195 -30.665000915527337 L -30.106639862060547 -30.719999313354485 L -30.187999725341797 -30.812000274658196 L -30.334999084472656 -30.941999435424798 L -30.499000549316406 -31.051000595092766 L -30.674999237060547 -31.138000488281243 L -30.719999313354492 -31.153242111206048 L -30.861000061035156 -31.20100021362304 L -31.054000854492188 -31.239999771118157 L -31.25 -31.253000259399407 L -31.445999145507812 -31.239999771118157 L -31.638999938964844 -31.20100021362304 L -31.825000762939453 -31.138000488281243 L -32.000999450683594 -31.051000595092766 L -32.165000915527344 -30.941999435424798 L -32.3120002746582 -30.812000274658196 L -32.39336013793945 -30.719999313354485 L -32.44200134277344 -30.665000915527337 L -32.55099868774414 -30.500999450683587 L -32.63800048828125 -30.325000762939446 L -32.70100021362305 -30.138999938964837 L -32.7400016784668 -29.945999145507805 L -32.75199890136719 -29.749999999999993 L -32.7400016784668 -29.55400085449218 L -32.70100021362305 -29.36100006103515 L -32.63800048828125 -29.17499923706054 L -32.55099868774414 -28.9990005493164 L -32.44200134277344 -28.83499908447265 L -32.3120002746582 -28.68799972534179 L -32.293907165527344 -28.67200088500976 L -32.165000915527344 -28.558000564575188 L -32.000999450683594 -28.44899940490722 L -31.825000762939453 -28.361999511718743 L -31.638999938964844 -28.298999786376946 L -31.445999145507812 -28.26000022888183 M -31.445999145507812 21.73999977111816 L -31.638999938964844 21.701000213623043 L -31.825000762939453 21.638000488281246 L -32.000999450683594 21.55100059509277 L -32.165000915527344 21.4419994354248 L -32.3120002746582 21.3120002746582 L -32.44200134277344 21.16500091552734 L -32.55099868774414 21.00099945068359 L -32.63800048828125 20.82500076293945 L -32.70100021362305 20.63899993896484 L -32.733131408691406 20.479999542236325 L -32.7400016784668 20.44599914550781 L -32.75199890136719 20.249999999999996 L -32.7400016784668 20.054000854492184 L -32.70100021362305 19.861000061035153 L -32.63800048828125 19.674999237060543 L -32.55099868774414 19.499000549316403 L -32.44200134277344 19.334999084472653 L -32.3120002746582 19.187999725341793 L -32.165000915527344 19.05800056457519 L -32.000999450683594 18.948999404907223 L -31.825000762939453 18.861999511718746 L -31.743999481201172 18.83456420898437 L -31.638999938964844 18.79899978637695 L -31.445999145507812 18.760000228881832 L -31.25 18.747999191284176 L -31.054000854492188 18.760000228881832 L -30.861000061035156 18.79899978637695 L -30.719999313354492 18.84675788879394 L -30.674999237060547 18.861999511718746 L -30.499000549316406 18.948999404907223 L -30.334999084472656 19.05800056457519 L -30.187999725341797 19.187999725341793 L -30.058000564575195 19.334999084472653 L -29.948999404907227 19.499000549316403 L -29.86199951171875 19.674999237060543 L -29.798999786376953 19.861000061035153 L -29.760000228881836 20.054000854492184 L -29.74799919128418 20.249999999999996 L -29.760000228881836 20.44599914550781 L -29.766870498657227 20.479999542236325 L -29.798999786376953 20.63899993896484 L -29.86199951171875 20.82500076293945 L -29.948999404907227 21.00099945068359 L -30.058000564575195 21.16500091552734 L -30.187999725341797 21.3120002746582 L -30.334999084472656 21.4419994354248 L -30.499000549316406 21.55100059509277 L -30.674999237060547 21.638000488281246 L -30.719999313354492 21.65324211120605 L -30.861000061035156 21.701000213623043 L -31.054000854492188 21.73999977111816 L -31.25 21.75300025939941 L -31.445999145507812 21.73999977111816 M -31.25 21.75300025939941 L -29.74799919128418 21.75300025939941 L -29.74799919128418 20.249999999999996 L -29.74799919128418 18.747999191284176 L -31.25 18.747999191284176 L -32.75199890136719 18.747999191284176 L -32.75199890136719 20.249999999999996 L -32.75199890136719 21.75300025939941 L -32.47589111328125 21.75300025939941 z" fill="none" stroke="rgb(255,0,0)" stroke-width="0.001mm" />
</svg>