<?xml version="1.0" standalone="no"?>
<!DOCTYPE svg PUBLIC "-//W3C//DTD SVG 1.1//EN"
  "http://www.w3.org/Graphics/SVG/1.1/DTD/svg11.dtd">
<svg width="139.5mm" height="101.99999999999997mm" viewBox="-50.5 -71.49999999999999 139.5 101.99999999999997" xmlns="http://www.w3.org/2000/svg" version="1.1">
	<title>svgOutput</title>
	<desc>made with tinkercad</desc>
<path d="M 88 23.499999999999996 L 84.00299835205078 23.499999999999996 L 72.5 23.499999999999996 L 70.50299835205078 23.499999999999996 L 44.99800109863281 23.499999999999996 L 44.49800109863281 23.499999999999996 L 40.5 23.499999999999996 L 40.48699951171875 23.499999999999996 L 40.48699951171875 24.499999999999993 L 40.474998474121094 24.57600021362304 L 40.24300003051758 26.045000076293938 L 39.53200149536133 27.438999176025384 L 38.5 28.47100067138671 L 38.42599868774414 28.545000076293938 L 37.03200149536133 29.254999160766594 L 35.48699951171875 29.499999999999993 L 33.94200134277344 29.254999160766594 L 32.98500061035156 28.76757621765136 L 32.54800033569336 28.545000076293938 L 31.441999435424805 27.438999176025384 L 30.73200035095215 26.045000076293938 L 30.499052047729492 24.57600021362304 L 30.49500274658203 24.550464630126946 L 30.503000259399414 24.499999999999993 L 30.49500274658203 24.44953536987304 L 30.48699951171875 24.399036407470696 L 30.257999420166016 22.954000473022457 L 29.547000885009766 21.55999946594238 L 28.440000534057617 20.45299911499023 L 27.04599952697754 19.74200057983398 L 25.512672424316406 19.499999999999996 L 25.5 19.497999191284176 L 25.487327575683594 19.499999999999996 L 25.48699951171875 19.500051498413082 L 25.48699951171875 19.499999999999996 L 20.49799919128418 19.499999999999996 L -29.49799919128418 19.499999999999996 L -34.487327575683594 19.499999999999996 L -34.5 19.497999191284176 L -34.512672424316406 19.499999999999996 L -36.04600143432617 19.74200057983398 L -37.439998626708984 20.45299911499023 L -38.547000885009766 21.55999946594238 L -39.257999420166016 22.954000473022457 L -39.5 24.48106956481933 L -39.50149917602539 24.49053764343261 L -39.50299835205078 24.499999999999993 L -39.50149917602539 24.509462356567376 L -39.50299835205078 24.51891899108886 L -39.51205062866211 24.57600021362304 L -39.744998931884766 26.045000076293938 L -40.232933044433594 27.003000259399407 L -40.45500183105469 27.438999176025384 L -41.56100082397461 28.545000076293938 L -42.95500183105469 29.254999160766594 L -44.5 29.499999999999993 L -46.04499816894531 29.254999160766594 L -47.00299835205078 28.767065048217766 L -47.43899917602539 28.545000076293938 L -48.54499816894531 27.438999176025384 L -49.255001068115234 26.045000076293938 L -49.48794937133789 24.57600021362304 L -49.5 24.499999999999993 L -49.5 19.499999999999996 L -49.5 -60.499999999999986 L -49.5 -65.49999999999999 L -49.49428939819336 -65.53600311279295 L -49.255001068115234 -67.0449981689453 L -48.54499816894531 -68.43900299072264 L -47.43899917602539 -69.5449981689453 L -47.00299835205078 -69.76706695556639 L -46.04499816894531 -70.25499725341795 L -44.5 -70.49999999999999 L -42.95500183105469 -70.25499725341795 L -41.99800109863281 -69.76757812499999 L -41.56100082397461 -69.5449981689453 L -40.45500183105469 -68.43900299072264 L -39.744998931884766 -67.0449981689453 L -39.50571060180664 -65.53600311279295 L -39.50299835205078 -65.51892089843749 L -39.50149917602539 -65.50946044921874 L -39.50299835205078 -65.49999999999999 L -39.5 -65.48107147216795 L -39.257999420166016 -63.953998565673814 L -38.547000885009766 -62.560001373291 L -37.439998626708984 -61.45299911499022 L -36.04600143432617 -60.74200057983397 L -34.512672424316406 -60.499999999999986 L -34.5 -60.4980010986328 L -34.487327575683594 -60.499999999999986 L -29.49799919128418 -60.499999999999986 L 20.49799919128418 -60.499999999999986 L 25.48699951171875 -60.499999999999986 L 25.48699951171875 -60.500053405761705 L 25.487327575683594 -60.499999999999986 L 25.5 -60.4980010986328 L 25.512672424316406 -60.499999999999986 L 27.04599952697754 -60.74200057983397 L 28.440000534057617 -61.45299911499022 L 29.547000885009766 -62.560001373291 L 30.257999420166016 -63.953998565673814 L 30.48699951171875 -65.39904022216795 L 30.49500274658203 -65.44953155517577 L 30.503000259399414 -65.49999999999999 L 30.497295379638672 -65.53600311279295 L 30.49500274658203 -65.5504684448242 L 30.503000259399414 -65.60089874267577 L 30.73200035095215 -67.0449981689453 L 31.441999435424805 -68.43900299072264 L 32.54800033569336 -69.5449981689453 L 32.98500061035156 -69.76757812499999 L 33.94200134277344 -70.25499725341795 L 35.48699951171875 -70.49999999999999 L 37.03200149536133 -70.25499725341795 L 37.9900016784668 -69.76706695556639 L 38.42599868774414 -69.5449981689453 L 38.5 -69.4710006713867 L 39.53200149536133 -68.43900299072264 L 40.24300003051758 -67.0449981689453 L 40.48131561279297 -65.53600311279295 L 40.48699951171875 -65.49999999999999 L 40.48699951171875 -63.499999999999986 L 40.5 -63.499999999999986 L 44.49800109863281 -63.499999999999986 L 70.50299835205078 -63.499999999999986 L 72.5 -63.499999999999986 L 75 -63.499999999999986 L 75 -29.499999999999993 L 84.00299835205078 -29.499999999999993 L 88 -29.499999999999993 L 88 23.499999999999996 M 24.503000259399414 -55.424003601074205 L 24.503000259399414 -55.50299835205077 L 20.49799919128418 -55.50299835205077 L 15.498000144958496 -55.50299835205077 L -17.5 -55.50299835205077 L -17.5 -45.502998352050774 L -17.5 -19.247999191284176 L -17.5 1.7530000209808345 L -17.5 4.502999782562255 L -17.5 14.50300025939941 L 15.498000144958496 14.50300025939941 L 20.49799919128418 14.50300025939941 L 24.576000213623047 14.50300025939941 L 25.5 14.50300025939941 L 25.503000259399414 14.50300025939941 L 25.503000259399414 14.502761840820309 L 27.065000534057617 14.378999710083004 L 28.590999603271484 14.01299953460693 L 30.041000366210938 13.41199970245361 L 30.503000259399414 13.128861427307125 L 31.378999710083008 12.592000007629391 L 32.573001861572266 11.572999954223631 L 32.768001556396484 11.34451103210449 L 33.49800109863281 10.48914337158203 L 33.59199905395508 10.378999710083006 L 34.4119987487793 9.041000366210936 L 35.01300048828125 7.591000080108641 L 35.37900161743164 6.065000057220457 L 35.50276184082031 4.502999782562255 L 35.50299835205078 4.502999782562255 L 35.50299835205078 4.499999999999999 L 35.50299835205078 1.1102230246251565e-16 L 35.50299835205078 -5.502999782562255 L 35.50299835205078 -45.502998352050774 L 35.50276184082031 -45.502998352050774 L 35.37900161743164 -47.06499862670898 L 35.01300048828125 -48.59099960327147 L 34.78047561645508 -49.15200042724608 L 34.4119987487793 -50.04100036621092 L 33.59199905395508 -51.379001617431626 L 32.768001556396484 -52.34451293945311 L 32.573001861572266 -52.57300186157225 L 31.378999710083008 -53.591999053955064 L 30.503000259399414 -54.1288604736328 L 30.041000366210938 -54.41199874877928 L 28.590999603271484 -55.013000488281236 L 27.065000534057617 -55.379001617431626 L 25.5 -55.50299835205077 L 24.503000259399414 -55.424003601074205 M -34.50299835205078 14.502761840820309 L -34.50299835205078 14.50300025939941 L -34.5 14.50300025939941 L -32.768001556396484 14.50300025939941 L -29.49799919128418 14.50300025939941 L -24.49799919128418 14.50300025939941 L -22.5 14.50300025939941 L -22.5 4.502999782562255 L -22.5 -45.502998352050774 L -22.5 -55.50299835205077 L -24.49799919128418 -55.50299835205077 L -29.49799919128418 -55.50299835205077 L -32.768001556396484 -55.50299835205077 L -33.45200729370117 -55.50299835205077 L -34.5 -55.50299835205077 L -35.50299835205078 -55.50299835205077 L -35.50299835205078 -55.42353057861327 L -36.064998626708984 -55.379001617431626 L -37.590999603271484 -55.013000488281236 L -39.04100036621094 -54.41199874877928 L -39.50299835205078 -54.1288604736328 L -40.37900161743164 -53.591999053955064 L -41.573001861572266 -52.57300186157225 L -42.59199905395508 -51.379001617431626 L -43.4119987487793 -50.04100036621092 L -43.78047561645508 -49.15200042724608 L -44.01300048828125 -48.59099960327147 L -44.37900161743164 -47.06499862670898 L -44.50276184082031 -45.502998352050774 L -44.50299835205078 -45.502998352050774 L -44.50299835205078 -5.502999782562255 L -44.50299835205078 1.1102230246251565e-16 L -44.50299835205078 2.5911962985992427 L -44.50299835205078 3.452005386352538 L -44.50299835205078 4.499999999999999 L -44.50299835205078 4.502999782562255 L -44.50276184082031 4.502999782562255 L -44.37900161743164 6.065000057220457 L -44.01300048828125 7.591000080108641 L -43.4119987487793 9.041000366210936 L -42.59199905395508 10.378999710083006 L -41.573001861572266 11.572999954223631 L -40.37900161743164 12.592000007629391 L -39.50299835205078 13.128861427307125 L -39.04100036621094 13.41199970245361 L -37.590999603271484 14.01299953460693 L -36.064998626708984 14.378999710083004 L -34.50299835205078 14.502761840820309 M 70.50299835205078 19.00300025939941 L 72.5 19.00300025939941 L 84.00299835205078 19.00300025939941 L 84.00299835205078 -25.302999496459954 L 72.5 -25.302999496459954 L 70.50299835205078 -25.302999496459954 L 44.99800109863281 -25.302999496459954 L 44.99800109863281 19.00300025939941 L 70.50299835205078 19.00300025939941 M 36.26100158691406 22.120000839233395 L 35.48699951171875 21.997999191284176 L 34.7140007019043 22.120000839233395 L 34.01599884033203 22.475000381469723 L 33.4630012512207 23.028999328613278 L 33.106998443603516 23.72699928283691 L 32.98500061035156 24.499999999999993 L 32.99699401855469 24.57600021362304 L 33.106998443603516 25.27300071716308 L 33.4630012512207 25.97100067138671 L 34.01599884033203 26.524999618530266 L 34.7140007019043 26.879999160766594 L 35.48699951171875 27.003000259399407 L 36.26100158691406 26.879999160766594 L 36.95800018310547 26.524999618530266 L 37.512001037597656 25.97100067138671 L 37.867000579833984 25.27300071716308 L 37.9779052734375 24.57600021362304 L 37.9900016784668 24.499999999999993 L 37.867000579833984 23.72699928283691 L 37.512001037597656 23.028999328613278 L 36.95800018310547 22.475000381469723 L 36.26100158691406 22.120000839233395 M -45.27299880981445 22.120000839233395 L -45.97100067138672 22.475000381469723 L -46.525001525878906 23.028999328613278 L -46.880001068115234 23.72699928283691 L -47.00299835205078 24.499999999999993 L -46.99090576171875 24.57600021362304 L -46.880001068115234 25.27300071716308 L -46.525001525878906 25.97100067138671 L -45.97100067138672 26.524999618530266 L -45.27299880981445 26.879999160766594 L -44.5 27.003000259399407 L -43.72700119018555 26.879999160766594 L -43.02899932861328 26.524999618530266 L -42.474998474121094 25.97100067138671 L -42.119998931884766 25.27300071716308 L -42.00999450683594 24.57600021362304 L -41.99800109863281 24.499999999999993 L -42.119998931884766 23.72699928283691 L -42.474998474121094 23.028999328613278 L -43.02899932861328 22.475000381469723 L -43.72700119018555 22.120000839233395 L -44.5 21.997999191284176 L -45.27299880981445 22.120000839233395 M -46.880001068115234 -66.2730026245117 L -46.99727249145508 -65.53600311279295 L -47.00299835205078 -65.49999999999999 L -46.880001068115234 -64.72699737548827 L -46.525001525878906 -64.02899932861327 L -45.97100067138672 -63.47499847412108 L -45.27299880981445 -63.11999893188475 L -44.5 -62.9980010986328 L -43.72700119018555 -63.11999893188475 L -43.02899932861328 -63.47499847412108 L -42.474998474121094 -64.02899932861327 L -42.119998931884766 -64.72699737548827 L -41.99800109863281 -65.49999999999999 L -42.00368118286133 -65.53600311279295 L -42.119998931884766 -66.2730026245117 L -42.474998474121094 -66.9710006713867 L -43.02899932861328 -67.52500152587889 L -43.72700119018555 -67.87999725341795 L -44.5 -68.00299835205077 L -45.27299880981445 -67.87999725341795 L -45.97100067138672 -67.52500152587889 L -46.525001525878906 -66.9710006713867 L -46.880001068115234 -66.2730026245117 M 37.98427200317383 -65.53600311279295 L 37.867000579833984 -66.2730026245117 L 37.512001037597656 -66.9710006713867 L 36.95800018310547 -67.52500152587889 L 36.26100158691406 -67.87999725341795 L 35.48699951171875 -68.00299835205077 L 34.7140007019043 -67.87999725341795 L 34.01599884033203 -67.52500152587889 L 33.4630012512207 -66.9710006713867 L 33.106998443603516 -66.2730026245117 L 32.99068069458008 -65.53600311279295 L 32.98500061035156 -65.49999999999999 L 33.106998443603516 -64.72699737548827 L 33.4630012512207 -64.02899932861327 L 34.01599884033203 -63.47499847412108 L 34.7140007019043 -63.11999893188475 L 35.48699951171875 -62.9980010986328 L 36.26100158691406 -63.11999893188475 L 36.95800018310547 -63.47499847412108 L 37.512001037597656 -64.02899932861327 L 37.867000579833984 -64.72699737548827 L 37.9900016784668 -65.49999999999999 L 37.98427200317383 -65.53600311279295 M 33.784000396728516 14.116999626159664 L 33.58777618408203 14.50300025939941 L 33.57099914550781 14.536000251770016 L 33.49800109863281 14.999999999999996 L 33.57099914550781 15.463999748229977 L 33.784000396728516 15.883000373840328 L 34.117000579833984 16.21599960327148 L 34.447479248046875 16.38400077819824 L 34.5359992980957 16.429000854492184 L 35 16.50300025939941 L 35.4640007019043 16.429000854492184 L 35.552520751953125 16.38400077819824 L 35.882999420166016 16.21599960327148 L 36.215999603271484 15.883000373840328 L 36.42900085449219 15.463999748229977 L 36.50299835205078 14.999999999999996 L 36.42900085449219 14.536000251770016 L 36.41222381591797 14.50300025939941 L 36.215999603271484 14.116999626159664 L 35.882999420166016 13.784000396728512 L 35.50299835205078 13.590826034545895 L 35.4640007019043 13.571000099182125 L 35 13.498000144958493 L 34.816001892089844 13.526947975158688 L 34.5359992980957 13.571000099182125 L 34.117000579833984 13.784000396728512 L 33.784000396728516 14.116999626159664 M 34.5359992980957 -53.5709991455078 L 35 -53.4980010986328 L 35.4640007019043 -53.5709991455078 L 35.50299835205078 -53.59082412719725 L 35.882999420166016 -53.7840003967285 L 36.215999603271484 -54.11700057983397 L 36.42900085449219 -54.53599929809569 L 36.50299835205078 -54.999999999999986 L 36.45579147338867 -55.29600143432616 L 36.42900085449219 -55.46400070190428 L 36.215999603271484 -55.882999420166 L 35.882999420166016 -56.21599960327147 L 35.50299835205078 -56.40917587280272 L 35.4640007019043 -56.42900085449217 L 35 -56.50299835205077 L 34.5359992980957 -56.42900085449217 L 34.117000579833984 -56.21599960327147 L 33.784000396728516 -55.882999420166 L 33.590824127197266 -55.50299835205077 L 33.57099914550781 -55.46400070190428 L 33.5445671081543 -55.29600143432616 L 33.49800109863281 -54.999999999999986 L 33.57099914550781 -54.53599929809569 L 33.784000396728516 -54.11700057983397 L 34.117000579833984 -53.7840003967285 L 34.5359992980957 -53.5709991455078 M -20.309999465942383 -19.297000885009762 L -20 -19.247999191284176 L -19.690000534057617 -19.297000885009762 L -19.410999298095703 -19.438999176025387 L -19.18899917602539 -19.6609992980957 L -19.047000885009766 -19.940000534057614 L -18.99799919128418 -20.249999999999996 L -19.03435516357422 -20.479999542236325 L -19.047000885009766 -20.55999946594238 L -19.18899917602539 -20.839000701904293 L -19.410999298095703 -21.061000823974606 L -19.690000534057617 -21.20299911499023 L -20 -21.25300025939941 L -20.309999465942383 -21.20299911499023 L -20.589000701904297 -21.061000823974606 L -20.81100082397461 -20.839000701904293 L -20.952999114990234 -20.55999946594238 L -20.96590232849121 -20.479999542236325 L -21.003000259399414 -20.249999999999996 L -20.952999114990234 -19.940000534057614 L -20.81100082397461 -19.6609992980957 L -20.589000701904297 -19.438999176025387 L -20.309999465942383 -19.297000885009762 M -20.589000701904297 1.560999989509582 L -20.479999542236328 1.6164766550064082 L -20.309999465942383 1.7029999494552608 L -20 1.7530000209808345 L -19.690000534057617 1.7029999494552608 L -19.410999298095703 1.560999989509582 L -19.18899917602539 1.3389999866485596 L -19.047000885009766 1.059999942779541 L -18.99799919128418 0.7499999999999999 L -19.047000885009766 0.4399999976158142 L -19.18899917602539 0.16099999845027932 L -19.350000381469727 1.1102230246251565e-16 L -19.410999298095703 -0.06100000068545329 L -19.690000534057617 -0.20299999415874465 L -20 -0.2529999911785124 L -20.309999465942383 -0.20299999415874465 L -20.589000701904297 -0.06100000068545329 L -20.649999618530273 1.1102230246251565e-16 L -20.81100082397461 0.16099999845027932 L -20.952999114990234 0.4399999976158142 L -21.003000259399414 0.7499999999999999 L -20.952999114990234 1.059999942779541 L -20.81100082397461 1.3389999866485596 L -20.589000701904297 1.560999989509582 M -43.58777618408203 14.50300025939941 L -43.73307800292969 14.21717262268066 L -43.784000396728516 14.116999626159664 L -44.117000579833984 13.784000396728512 L -44.50299835205078 13.587775230407711 L -44.5359992980957 13.571000099182125 L -45 13.498000144958493 L -45.055999755859375 13.506810188293453 L -45.4640007019043 13.571000099182125 L -45.882999420166016 13.784000396728512 L -46.215999603271484 14.116999626159664 L -46.42900085449219 14.536000251770016 L -46.50299835205078 14.999999999999996 L -46.42900085449219 15.463999748229977 L -46.215999603271484 15.883000373840328 L -45.882999420166016 16.21599960327148 L -45.552520751953125 16.38400077819824 L -45.4640007019043 16.429000854492184 L -45 16.50300025939941 L -44.5359992980957 16.429000854492184 L -44.50299835205078 16.412223815917965 L -44.447479248046875 16.38400077819824 L -44.117000579833984 16.21599960327148 L -43.784000396728516 15.883000373840328 L -43.57099914550781 15.463999748229977 L -43.49800109863281 14.999999999999996 L -43.57099914550781 14.536000251770016 L -43.58777618408203 14.50300025939941 M -43.07099914550781 -54.53599929809569 L -43.0251350402832 -54.82752609252928 L -42.99800109863281 -54.999999999999986 L -43.0445671081543 -55.29600143432616 L -43.07099914550781 -55.46400070190428 L -43.090824127197266 -55.50299835205077 L -43.284000396728516 -55.882999420166 L -43.617000579833984 -56.21599960327147 L -44.0359992980957 -56.42900085449217 L -44.5 -56.50299835205077 L -44.50299835205078 -56.502521514892564 L -44.9640007019043 -56.42900085449217 L -45.382999420166016 -56.21599960327147 L -45.715999603271484 -55.882999420166 L -45.92900085449219 -55.46400070190428 L -45.95579147338867 -55.29600143432616 L -46.00299835205078 -54.999999999999986 L -45.92900085449219 -54.53599929809569 L -45.715999603271484 -54.11700057983397 L -45.382999420166016 -53.7840003967285 L -44.9640007019043 -53.5709991455078 L -44.50299835205078 -53.49847030639647 L -44.5 -53.4980010986328 L -44.0359992980957 -53.5709991455078 L -43.617000579833984 -53.7840003967285 L -43.284000396728516 -54.11700057983397 L -43.07099914550781 -54.53599929809569 M 70.50299835205078 -59.50299835205077 L 44.49800109863281 -59.50299835205077 L 44.49800109863281 -33.498001098632805 L 44.99800109863281 -33.498001098632805 L 70.50299835205078 -33.498001098632805 L 70.50299835205078 -59.50299835205077 z" fill="none" stroke="rgb(255,0,0)" stroke-width="0.001mm" />
</svg>